<svg width="16" height="16" viewBox="0 0 16 16" fill="none" xmlns="http://www.w3.org/2000/svg">
<path d="M8 3C8.69036 3 9.25 2.44036 9.25 1.75C9.25 1.05964 8.69036 0.5 8 0.5C7.30964 0.5 6.75 1.05964 6.75 1.75C6.75 2.44036 7.30964 3 8 3Z" fill="#57BBC9"/>
<path d="M8 15.5C8.69036 15.5 9.25 14.9404 9.25 14.25C9.25 13.5596 8.69036 13 8 13C7.30964 13 6.75 13.5596 6.75 14.25C6.75 14.9404 7.30964 15.5 8 15.5Z" fill="#828DA0"/>
<path d="M13 8C13 8.69036 13.5596 9.25 14.25 9.25C14.9404 9.25 15.5 8.69036 15.5 8C15.5 7.30964 14.9404 6.75 14.25 6.75C13.5596 6.75 13 7.30964 13 8Z" fill="#EF8A78"/>
<path d="M0.5 8C0.5 8.69036 1.05964 9.25 1.75 9.25C2.44036 9.25 3 8.69036 3 8C3 7.30964 2.44036 6.75 1.75 6.75C1.05964 6.75 0.5 7.30964 0.5 8Z" fill="#DBB572"/>
<path d="M11.5349 4.46446C12.0231 4.95261 12.8146 4.95261 13.3027 4.46446C13.7909 3.9763 13.7909 3.18484 13.3027 2.69669C12.8146 2.20853 12.0231 2.20853 11.5349 2.69669C11.0468 3.18484 11.0468 3.9763 11.5349 4.46446Z" fill="#3BB67F"/>
<path d="M2.69729 13.3033C3.18545 13.7914 3.9769 13.7914 4.46506 13.3033C4.95322 12.8151 4.95322 12.0237 4.46506 11.5355C3.9769 11.0474 3.18545 11.0474 2.69729 11.5355C2.20914 12.0237 2.20914 12.8151 2.69729 13.3033Z" fill="#265361"/>
<path d="M11.5361 11.5355C11.0479 12.0237 11.0479 12.8151 11.5361 13.3033C12.0242 13.7914 12.8157 13.7914 13.3039 13.3033C13.792 12.8151 13.792 12.0237 13.3039 11.5355C12.8157 11.0474 12.0242 11.0474 11.5361 11.5355Z" fill="#B35E4F"/>
<path d="M2.69613 2.69671C2.20797 3.18487 2.20797 3.97632 2.69613 4.46448C3.18428 4.95264 3.97574 4.95264 4.46389 4.46448C4.95205 3.97633 4.95205 3.18487 4.46389 2.69671C3.97574 2.20856 3.18428 2.20856 2.69613 2.69671Z" fill="#DAE0E3"/>
</svg>
